<svg style="display: none">
  <symbol id="menu" xmlns="http://www.w3.org/2000/svg" viewBox="0 0 25 11">
    <path d="M1.5 3h22c.8 0 1.5-.7 1.5-1.5S24.3 0 23.5 0h-22C.7 0 0 .7 0 1.5S.7 3 1.5 3zM23.5 8h-22C.7 8 0 8.7 0 9.5S.7 11 1.5 11h22c.8 0 1.5-.7 1.5-1.5S24.3 8 23.5 8z"/>
  </symbol>
  <symbol id="menu-close" xmlns="http://www.w3.org/2000/svg" viewBox="0 0 18 18">
    <path d="M10.3 9l7.4-7.4c.4-.4.4-.9 0-1.3s-.9-.4-1.3 0L9 7.7 1.6.3C1.2-.1.7-.1.3.3s-.4.9 0 1.3L7.7 9 .3 16.4c-.4.4-.4.9 0 1.3s.9.4 1.3 0L9 10.3l7.4 7.4c.4.4.9.4 1.3 0s.4-.9 0-1.3L10.3 9z"/>
  </symbol>
  <symbol id="topmenu-mail" xmlns="http://www.w3.org/2000/svg" viewBox="0 0 18 14" xml:space="preserve">
    <path class="st0" d="M14.9 1.8c1.2-1 .9-1.8-.7-1.8H3.7c-1.5 0-1.8.8-.6 1.8l3.7 3.1c1.2 1 3.2 1 4.4 0l3.7-3.1z"/>
    <path class="st0" d="M11.9 7.1c-1.2 1-2.2 1.8-2.2 1.8-.1.1-.2.1-.3.1h-.1c-.1.1-.2.1-.3.1-.1 0-.2 0-.3-.1h-.1c-.1 0-.2 0-.3-.1 0 0-1-.8-2.2-1.8L2.2 3.8C1 2.8 0 3.3 0 4.8v6.3C0 12.7 1.3 14 2.8 14h12.3c1.6 0 2.8-1.3 2.8-2.8V4.8c0-1.6-1-2-2.2-1l-3.8 3.3z"/>
  </symbol>
  <symbol id="topmenu-phone" xmlns="http://www.w3.org/2000/svg" viewBox="0 0 18 18" xml:space="preserve">
    <path class="st0" d="M12.6 18h-.8c-3.6-.4-6.2-2.1-8.1-4.3C1.8 11.6.3 8.8 0 5V4c.1-.7.4-1.1.8-1.5C1.2 2 2 1.4 2.6 1.3c.5 0 1.3.3 1.6.8.3.4.4 1.2.6 1.8.1.6.4 1.4.4 2-.2.9-1.3 1.3-1.7 1.9 1.1 2.8 3 4.8 5.4 6.2.6-.3 1.2-1.4 2-1.4.3 0 .7.2 1 .3.3.1.6.2 1 .4.5.2 1.4.5 1.7.9.3.4.5 1.2.4 1.7-.1.8-1.6 1.8-2.4 2.1z" id="UrwUhy_1_"/>
    <path class="st0" d="M9.1 1.1c4.3 0 7.8 3.6 7.8 8H18c0-5-4-9.1-8.9-9.1v1.1zM9.1 6.9V8c.6 0 1 .5 1 1.1h1.1c0-1.2-.9-2.2-2.1-2.2z"/>
    <path class="st0" d="M9.1 4.6c2.4 0 4.4 2 4.4 4.5h1.2c0-3.1-2.5-5.7-5.5-5.7v1.2h-.1z"/>
  </symbol>
  <symbol id="contacts-mail" xmlns="http://www.w3.org/2000/svg" viewBox="0 0 36 26">
    <path d="M0 23c0 1.6 1.3 3 3 3h30c1.7 0 3-1.3 3-3V3c0-1.6-1.3-3-3-3H3C1.3 0 0 1.3 0 3v20zm11-10L4.2 6.2c-.6-.6-.6-1.5 0-2 .6-.6 1.5-.6 2.1 0l11 10.9c.4.4 1.2.4 1.6 0l11-10.9c.6-.6 1.5-.6 2.1 0 .6.6.6 1.5 0 2L25 13l6.9 6.8c.6.6.6 1.5 0 2-.6.6-1.5.6-2.1 0L22.9 15s-2.1 2.2-2.5 2.5c-.6.6-1.4 1-2.4 1-.9 0-1.8-.4-2.4-1L13.1 15l-6.9 6.8c-.6.6-1.5.6-2.1 0-.6-.6-.6-1.5 0-2L11 13z"/>
  </symbol>
  <symbol id="contacts-phone" xmlns="http://www.w3.org/2000/svg" viewBox="0 0 36 36">
    <path d="M18 0C11.6 0 5.2 1.1 2.8 3.4.9 5.3.2 8.7 0 10.8v.3c0 .8.7 1.5 1.5 1.5.1 0 3.7-.3 5.9-.5h.2c.8 0 1.5-.7 1.5-1.5v-3C9 6.7 9.7 6 10.7 6h14.7c.8 0 1.6.7 1.6 1.7v3c0 .8.7 1.5 1.5 1.5h.2c2.2.2 5.8.5 5.9.5.8 0 1.5-.7 1.5-1.5v-.3c-.2-2.1-.9-5.5-2.8-7.4C30.8 1.1 24.4 0 18 0zm0 19.5c-1.7 0-3 1.3-3 3s1.3 3 3 3 3-1.3 3-3-1.3-3-3-3zm-2.3-6.8v-1.9c0-1-.8-1.9-1.9-1.9s-1.8.9-1.8 2v1.9L1.9 23.6c-.7.7-1.1 1.6-1.1 2.7v3c0 1.7 1.3 3 3 3h.8v1.9c0 1 .8 1.9 1.9 1.9s1.9-.8 1.9-1.9v-1.9h19.5v1.9c0 1 .8 1.9 1.9 1.9 1 0 1.9-.8 1.9-1.9v-1.9h.8c1.7 0 3-1.3 3-3v-3c0-1.1-.4-2-1.1-2.7L24 12.7v-1.9c0-1-.8-1.9-1.9-1.9s-1.9.8-1.9 1.9v1.9h-4.5zm2.3 3.8c3.3 0 6 2.7 6 6s-2.7 6-6 6-6-2.7-6-6 2.7-6 6-6z"/>
  </symbol>
  <symbol id="arrow-left" xmlns="http://www.w3.org/2000/svg" viewBox="0 0 10 14">
    <path d="M0 7.1l10-7V14z"/>
  </symbol>
  <symbol id="arrow-right" xmlns="http://www.w3.org/2000/svg" viewBox="0 0 10 14">
    <path d="M0 14V.1l10 7z"/>
  </symbol>
  <symbol id="business" xmlns="http://www.w3.org/2000/svg" viewBox="0 0 17 21">
    <path d="M16.4 15.1c-.9-1.2-2-2-3.6-2.4l-1.5 5.2c0 .5-.4.9-.9.9s-.9-.4-.9-.9v-4.2c0-.6-.5-1.1-1.1-1.1-.6 0-1.1.5-1.1 1.1v4.2c0 .5-.4.9-.9.9s-.9-.4-.9-.9L4 12.7c-1.6.4-2.7 1.2-3.6 2.4-.2.5-.4 1.5-.4 2v2.2c0 1 .8 1.7 1.7 1.7h13.5c1 0 1.7-.8 1.7-1.7v-1.8-.4c.1-.5-.1-1.5-.5-2zM3.9 4.6c0 2.6 1.6 6.3 4.6 6.3 2.9 0 4.6-3.8 4.6-6.3 0-2.6-2-4.6-4.6-4.6C6 0 3.9 2.1 3.9 4.6z"/>
  </symbol>
  <symbol id="location" xmlns="http://www.w3.org/2000/svg" viewBox="0 0 28 43">
    <path d="M11.7 13.9c0-1.2 1-2.2 2.3-2.2s2.3 1 2.3 2.2c0 1.2-1 2.2-2.3 2.2-1.2 0-2.3-1-2.3-2.2zM14 8.1c-3.2 0-5.9 2.6-5.9 5.8s2.6 5.8 5.9 5.8c3.2 0 5.9-2.6 5.9-5.8 0-3.2-2.7-5.8-5.9-5.8zM0 13.6c0 9.1 10.9 16.2 11.7 26.7v.4c0 1.2 1 2.2 2.3 2.2s2.3-1 2.3-2.2v-.4C17.2 29.8 28 22.8 28 13.6 28 6.1 21.7 0 14 0S0 6.1 0 13.6zm14-9.1c5.2 0 9.5 4.2 9.5 9.4s-4.2 9.4-9.5 9.4-9.5-4.2-9.5-9.4S8.8 4.5 14 4.5z"/>
  </symbol>
  <symbol id="filter" xmlns="http://www.w3.org/2000/svg" viewBox="0 0 15 10">
    <path d="M4 0h2v2H4zM0 0h3v2H0zM7 0h8v2H7zM4 8h2v2H4zM0 8h3v2H0zM7 8h8v2H7zM9 4h2v2H9zM12 4h3v2h-3zM0 4h8v2H0z"/>
  </symbol>
  <symbol id="dots" xmlns="http://www.w3.org/2000/svg" viewBox="0 0 27 5" xml:space="preserve">
    <circle class="st0" cx="2.5" cy="2.5" r="2.5"/><circle class="st0" cx="13.5" cy="2.5" r="2.5"/><circle class="st0" cx="24.5" cy="2.5" r="2.5"/>
  </symbol>
  <symbol id="filter-close" xmlns="http://www.w3.org/2000/svg" viewBox="0 0 12 12">
    <path d="M6.9 6l4.9-4.9c.2-.2.2-.6 0-.9s-.6-.2-.9 0L6 5.1 1.1.2C.9 0 .5 0 .2.2s-.2.6 0 .9L5.1 6 .2 10.9c-.2.2-.2.6 0 .9.2.2.6.2.9 0L6 6.9l4.9 4.9c.2.2.6.2.9 0 .2-.2.2-.6 0-.9L6.9 6z"/>
  </symbol>
  <symbol id="return" xmlns="http://www.w3.org/2000/svg" viewBox="0 0 32 16.1">
    <path d="M27.6 2.1H10V0L0 3l10 2.9V4.1h17.6c.4 0 2.4 0 2.4 2v6.1c0 .5-.1.9-.4 1.2-.6.6-1.6.7-2 .7H4v2H27.7c.4 0 2.1-.1 3.2-1.2.7-.7 1.1-1.6 1.1-2.7V6.1c0-2-2.6-4-4.4-4z"/>
  </symbol>
</svg>
